<svg width="51px" height="31px" viewBox="0 0 51 31" version="1.1" xmlns="http://www.w3.org/2000/svg" xmlns:xlink="http://www.w3.org/1999/xlink">
    <!-- Generator: Sketch 48.2 (47327) - http://www.bohemiancoding.com/sketch -->
    <desc>Created with Sketch.</desc>
    <defs></defs>
    <g id="Page-1" stroke="none" stroke-width="1" fill="none" fill-rule="evenodd">
        <g id="Artboard" transform="translate(-262.000000, -494.000000)" fill="#F9F9F9">
            <g id="Group-1" transform="translate(84.000000, 46.000000)">
                <path d="M217.753078,454.285806 C217.235745,454.285806 216.724348,454.321776 216.216078,454.394178 C213.306537,450.477903 208.714087,448.128105 203.729013,448.128105 C198.743939,448.128105 194.154351,450.477903 191.242001,454.394178 C190.733678,454.321776 190.222281,454.285806 189.704948,454.285806 C183.691144,454.285806 178.797336,459.120504 178.797336,465.061791 C178.797336,471.003045 183.691144,475.837743 189.704948,475.837743 C191.037845,475.837743 192.343606,475.597305 193.5731,475.13118 C196.391322,477.560706 199.979581,478.91661 203.729013,478.91661 C207.481519,478.91661 211.066757,477.560706 213.884926,475.13118 C215.114367,475.597305 216.420181,475.837743 217.753078,475.837743 C223.766935,475.837743 228.66069,471.003045 228.66069,465.061791 C228.66069,459.120504 223.766935,454.285806 217.753078,454.285806 Z" id="Shape-1"></path>
            </g>
        </g>
    </g>
</svg>