<svg width="40px" height="39px" viewBox="0 0 40 39" version="1.1" xmlns="http://www.w3.org/2000/svg" xmlns:xlink="http://www.w3.org/1999/xlink">
    <!-- Generator: Sketch 48.2 (47327) - http://www.bohemiancoding.com/sketch -->
    <desc>Created with Sketch.</desc>
    <defs></defs>
    <g id="Page-1" stroke="none" stroke-width="1" fill="none" fill-rule="evenodd">
        <g id="Artboard" transform="translate(-488.000000, -486.000000)" fill="#F9F9F9">
            <g id="Group-1" transform="translate(84.000000, 46.000000)">
                <path d="M424.125496,446.442566 C423.309058,446.442566 422.64865,445.782138 422.64865,444.965705 L422.64865,442.011942 C422.64865,441.19555 423.309058,440.535081 424.125496,440.535081 C424.941892,440.535081 425.602342,441.19555 425.602342,442.011942 L425.602342,444.965705 C425.602342,445.782138 424.941892,446.442566 424.125496,446.442566 Z M435.611698,450.333835 C435.034828,450.910705 434.100244,450.910705 433.52308,450.333835 C432.94621,449.756965 432.94621,448.822411 433.52308,448.245541 L435.611698,446.15696 C436.188568,445.58009 437.12311,445.58009 437.69998,446.15696 C438.27685,446.73383 438.27685,447.668384 437.69998,448.245541 L435.611698,450.333835 Z M406.40305,461.211258 C405.586612,461.211258 404.926162,460.55083 404.926162,459.734397 C404.926162,458.918005 405.586612,458.257536 406.40305,458.257536 L409.356742,458.257536 C410.17318,458.257536 410.83363,458.918005 410.83363,459.734397 C410.83363,460.55083 410.17318,461.211258 409.356742,461.211258 L406.40305,461.211258 Z M437.417278,459.734397 C437.417278,458.918005 438.07777,458.257536 438.894208,458.257536 L441.8479,458.257536 C442.664296,458.257536 443.324788,458.918005 443.324788,459.734397 C443.324788,460.55083 442.664296,461.211258 441.8479,461.211258 L438.894208,461.211258 C438.07777,461.211258 437.417278,460.55083 437.417278,459.734397 Z M412.636648,450.335311 L410.54803,448.24673 C409.97116,447.669819 409.97116,446.735306 410.54803,446.158436 C411.1249,445.581566 412.0594,445.581566 412.636648,446.158436 L414.724888,448.24673 C415.301758,448.823846 415.301758,449.758441 414.724888,450.335311 C414.148018,450.912181 413.213518,450.912181 412.636648,450.335311 Z M413.93743,461.211258 C413.868004,460.72508 413.787364,460.240665 413.787364,459.734397 C413.787364,454.034577 418.425676,449.396329 424.125496,449.396329 C429.825316,449.396329 434.463544,454.034577 434.463544,459.734397 C434.463544,460.240665 434.385592,460.72508 434.313562,461.211258 L431.359786,461.211258 C431.457856,460.733936 431.509852,460.240665 431.509852,459.734397 C431.509852,455.655594 428.204326,452.350092 424.125496,452.350092 C420.046666,452.350092 416.74114,455.655594 416.74114,459.734397 C416.74114,460.240665 416.793136,460.733936 416.891164,461.211258 L413.93743,461.211258 Z M441.8479,464.165021 C442.664296,464.165021 443.324788,464.82549 443.324788,465.641882 C443.324788,466.458315 442.664296,467.118743 441.8479,467.118743 L406.40305,467.118743 C405.586612,467.118743 404.926162,466.458315 404.926162,465.641882 C404.926162,464.82549 405.586612,464.165021 406.40305,464.165021 L441.8479,464.165021 Z M441.8479,470.072506 C442.664296,470.072506 443.324788,470.732975 443.324788,471.549367 C443.324788,472.365759 442.664296,473.026228 441.8479,473.026228 L406.40305,473.026228 C405.586612,473.026228 404.926162,472.365759 404.926162,471.549367 C404.926162,470.732975 405.586612,470.072506 406.40305,470.072506 L441.8479,470.072506 Z M441.8479,475.979991 C442.664296,475.979991 443.324788,476.64046 443.324788,477.456852 C443.324788,478.273244 442.664296,478.933713 441.8479,478.933713 L406.40305,478.933713 C405.586612,478.933713 404.926162,478.273244 404.926162,477.456852 C404.926162,476.64046 405.586612,475.979991 406.40305,475.979991 L441.8479,475.979991 Z" id="Combined-shape-12"></path>
            </g>
        </g>
    </g>
</svg>