<svg width="47px" height="41px" viewBox="0 0 47 41" version="1.1" xmlns="http://www.w3.org/2000/svg" xmlns:xlink="http://www.w3.org/1999/xlink">
    <!-- Generator: Sketch 48.2 (47327) - http://www.bohemiancoding.com/sketch -->
    <desc>Created with Sketch.</desc>
    <defs></defs>
    <g id="Page-1" stroke="none" stroke-width="1" fill="none" fill-rule="evenodd">
        <g id="Artboard" transform="translate(-338.000000, -495.000000)" fill="#F9F9F9">
            <g id="Group-1" transform="translate(84.000000, 46.000000)">
                <path d="M290.218195,455.051914 C295.695317,455.051914 300.152357,459.50895 300.152357,464.986118 C300.152357,470.463329 295.695317,474.920365 290.218195,474.920365 C289.00422,474.920365 287.814941,474.6987 286.695144,474.268958 C284.128426,476.508742 280.863262,477.758709 277.445561,477.758709 C274.030751,477.758709 270.762696,476.508742 268.195929,474.268958 C267.07623,474.6987 265.886951,474.920365 264.672976,474.920365 C259.195805,474.920365 254.738765,470.463329 254.738765,464.986118 C254.738765,459.50895 259.195805,455.051914 264.672976,455.051914 C265.144111,455.051914 265.609954,455.08511 266.072857,455.151803 C268.725276,451.541394 272.905319,449.375183 277.445561,449.375183 C281.985803,449.375183 286.168394,451.541394 288.818265,455.151803 C289.281217,455.08511 289.747011,455.051914 290.218195,455.051914 Z M274.607187,486.273784 C274.607187,484.705015 277.445561,480.597053 277.445561,480.597053 C277.445561,480.597053 280.283935,484.705015 280.283935,486.273784 C280.283935,487.84251 279.014296,489.112128 277.445561,489.112128 C275.876826,489.112128 274.607187,487.84251 274.607187,486.273784 Z" id="Combined-shape-10"></path>
            </g>
        </g>
    </g>
</svg>