<svg width="42px" height="42px" viewBox="0 0 42 42" version="1.1" xmlns="http://www.w3.org/2000/svg" xmlns:xlink="http://www.w3.org/1999/xlink">
    <!-- Generator: Sketch 48.2 (47327) - http://www.bohemiancoding.com/sketch -->
    <desc>Created with Sketch.</desc>
    <defs></defs>
    <g id="Page-1" stroke="none" stroke-width="1" fill="none" fill-rule="evenodd">
        <g id="Artboard" transform="translate(-414.000000, -495.000000)" fill="#F9F9F9">
            <g id="Group-1" transform="translate(84.000000, 46.000000)">
                <path d="M356.272168,484.9974 C356.952012,485.393796 357.183012,486.26196 356.791456,486.939428 C356.400164,487.61694 355.534552,487.847632 354.854532,487.45634 L353.396768,486.613168 C353.008028,486.94946 352.561296,487.210512 352.069552,487.38594 L352.069552,489.06696 C352.069552,489.849808 351.432388,490.482088 350.649496,490.482088 C349.866692,490.482088 349.23186,489.849808 349.23186,489.06696 L349.23186,487.38594 C348.737828,487.210512 348.293604,486.94946 347.902312,486.618316 L346.444592,487.45634 C345.76708,487.847632 344.89896,487.61694 344.507668,486.939428 C344.116112,486.26196 344.34962,485.388956 345.029464,484.9974 L346.472092,484.16448 C346.424528,483.91368 346.394476,483.65782 346.394476,483.39162 C346.394476,483.125728 346.424528,482.869868 346.472092,482.61656 L345.029464,481.783596 C344.351996,481.392084 344.116112,480.523964 344.507668,479.846672 C344.89896,479.166652 345.76708,478.93596 346.447144,479.327208 L347.904644,480.17016 C348.2962,479.83642 348.740116,479.57308 349.23186,479.397344 L349.23186,477.721472 C349.23186,476.936072 349.866692,476.301504 350.649496,476.301504 C351.432388,476.301504 352.069552,476.936072 352.069552,477.721472 L352.069552,479.39994 C352.561296,479.575632 353.00288,479.83642 353.39448,480.17016 L354.854532,479.327208 C355.534552,478.93596 356.400164,479.169248 356.791456,479.849004 C357.180416,480.521368 356.94946,481.389488 356.272168,481.783596 L354.82448,482.619112 C354.872308,482.869868 354.904912,483.125728 354.904912,483.39162 C354.904912,483.65782 354.872308,483.91368 354.827032,484.16448 L356.272168,484.9974 Z M350.649496,484.811896 C351.432388,484.811896 352.067264,484.174512 352.067264,483.39162 C352.067264,482.608816 351.432388,481.974248 350.649496,481.974248 C349.866692,481.974248 349.229572,482.608816 349.229572,483.39162 C349.229572,484.174512 349.866692,484.811896 350.649496,484.811896 Z M362.210848,454.51354 C367.168636,454.51354 371.202996,458.547944 371.202996,463.505644 C371.202996,468.463432 367.168636,472.497836 362.210848,472.497836 C361.112036,472.497836 360.035532,472.297152 359.021948,471.908192 C356.69866,473.935536 353.743092,475.06704 350.649496,475.06704 C347.55854,475.06704 344.60042,473.935536 342.277132,471.908192 C341.263548,472.297152 340.187088,472.497836 339.088232,472.497836 C334.130488,472.497836 330.096128,468.463432 330.096128,463.505644 C330.096128,458.547944 334.130488,454.51354 339.088232,454.51354 C339.51468,454.51354 339.936332,454.543636 340.355344,454.604004 C342.756248,451.336036 346.539896,449.37522 350.649496,449.37522 C354.759228,449.37522 358.54512,451.336036 360.943736,454.604004 C361.362748,454.543636 361.7844,454.51354 362.210848,454.51354 Z" id="Combined-shape-11"></path>
            </g>
        </g>
    </g>
</svg>