<svg width="51px" height="52px" viewBox="0 0 51 52" version="1.1" xmlns="http://www.w3.org/2000/svg" xmlns:xlink="http://www.w3.org/1999/xlink">
    <!-- Generator: Sketch 48.2 (47327) - http://www.bohemiancoding.com/sketch -->
    <desc>Created with Sketch.</desc>
    <defs></defs>
    <g id="Page-1" stroke="none" stroke-width="1" fill="none" fill-rule="evenodd">
        <g id="Artboard" transform="translate(-118.000000, -484.000000)" fill="#F9F9F9">
            <g id="Group-1" transform="translate(84.000000, 46.000000)">
                <path d="M59.579712,450.144788 C67.088116,450.144788 73.198168,456.25478 73.198168,463.763156 C73.198168,471.271532 67.088116,477.381578 59.579712,477.381578 C52.071361,477.381578 45.961362,471.271532 45.961362,463.763156 C45.961362,456.25478 52.071361,450.144788 59.579712,450.144788 Z M59.579712,473.490554 C64.952746,473.490554 69.307173,469.13621 69.307173,463.763156 C69.307173,458.390102 64.952746,454.035758 59.579712,454.035758 C54.206731,454.035758 49.852357,458.390102 49.852357,463.763156 C49.852357,469.13621 54.206731,473.490554 59.579712,473.490554 Z M59.579712,438.471878 C60.655241,438.471878 61.525236,439.341926 61.525236,440.41739 L61.525236,444.30836 C61.525236,445.383824 60.655241,446.253818 59.579712,446.253818 C58.504289,446.253818 57.634241,445.383824 57.634241,444.30836 L57.634241,440.41739 C57.634241,439.341926 58.504289,438.471878 59.579712,438.471878 Z M59.579712,481.272494 C60.655241,481.272494 61.525236,482.142542 61.525236,483.218006 L61.525236,487.108976 C61.525236,488.18444 60.655241,489.054434 59.579712,489.054434 C58.504289,489.054434 57.634241,488.18444 57.634241,487.108976 L57.634241,483.218006 C57.634241,482.142542 58.504289,481.272494 59.579712,481.272494 Z M77.461435,445.877546 C78.221402,446.637488 78.221402,447.86858 77.461435,448.628846 L74.710523,451.379768 C73.950662,452.139656 72.719525,452.139656 71.95924,451.379768 C71.199326,450.619826 71.199326,449.388788 71.95924,448.628846 L74.710523,445.877546 C75.470437,445.117658 76.701574,445.117658 77.461435,445.877546 Z M47.200237,476.146544 C47.960151,476.906432 47.960151,478.134014 47.200237,478.897466 L44.448954,481.648712 C43.689093,482.408654 42.457956,482.408654 41.698042,481.648712 C40.938128,480.888824 40.938128,479.657732 41.698042,478.897466 L44.448954,476.146544 C45.208921,475.382714 46.439952,475.386656 47.200237,476.146544 Z M34.288483,463.763156 C34.288483,462.687692 35.158531,461.817644 36.233954,461.817644 L40.124896,461.817644 C41.200372,461.817644 42.07042,462.687692 42.07042,463.763156 C42.07042,464.83862 41.200372,465.708614 40.124896,465.708614 L36.233954,465.708614 C35.158531,465.708614 34.288483,464.83862 34.288483,463.763156 Z M77.08911,463.763156 C77.08911,462.687692 77.959105,461.817644 79.034581,461.817644 L82.925523,461.817644 C84.000999,461.817644 84.871047,462.687692 84.871047,463.763156 C84.871047,464.83862 84.000999,465.708614 82.925523,465.708614 L79.034581,465.708614 C77.959105,465.708614 77.08911,464.83862 77.08911,463.763156 Z M41.69412,445.87949 C42.454034,445.119602 43.685171,445.119602 44.445456,445.87949 L47.196421,448.630466 C47.956282,449.390678 47.956282,450.621824 47.196421,451.381712 C46.436454,452.1416 45.20537,452.1416 44.445456,451.381712 L41.69412,448.630466 C40.934259,447.870524 40.934259,446.639378 41.69412,445.87949 Z M71.963109,476.142602 C72.723023,475.382714 73.950662,475.382714 74.714074,476.142602 L77.465357,478.893956 C78.225271,479.653844 78.225271,480.88499 77.465357,481.644878 C76.705496,482.404766 75.474306,482.404766 74.714074,481.644878 L71.963109,478.893956 C71.199326,478.134014 71.203195,476.902976 71.963109,476.142602 Z" id="Combined-shape-7"></path>
            </g>
        </g>
    </g>
</svg>
